<svg fill="none" height="24" viewBox="0 0 24 24" width="24" xmlns="http://www.w3.org/2000/svg"><path clip-rule="evenodd" d="m12.882 4.87272v4.78787c0 .64771-.525 1.17271-1.1727 1.17271s-1.1727-.525-1.1727-1.17271v-4.78787c0-.64767.525-1.17272 1.1727-1.17272s1.1727.52504 1.1727 1.17272zm-4.0454 0c0-1.58656 1.2862-2.87272 2.8727-2.87272 1.5866 0 2.8727 1.28616 2.8727 2.87272v4.78787c0 1.58651-1.2861 2.87271-2.8727 2.87271-1.5865 0-2.8727-1.2862-2.8727-2.87271zm-2.02271 4.7879c0-.46945-.38056-.85-.85-.85s-.85.38055-.85.85c0 2.57518 1.09204 4.26678 2.50788 5.28618 1.04938.7555 2.24431 1.1211 3.23753 1.2514v4.1033h-3.45905c-.46944 0-.85.3806-.85.85s.38056.85.85.85h4.30905 4.3091c.4695 0 .85-.3806.85-.85s-.3805-.85-.85-.85h-3.4591v-4.1033c.9933-.1303 2.1882-.4959 3.2376-1.2514 1.4158-1.0194 2.5079-2.711 2.5079-5.28618 0-.46945-.3806-.85-.85-.85-.4695 0-.85.38055-.85.85 0 2.02118-.8231 3.20228-1.8012 3.90658-1.0215.7354-2.2727.9889-3.0943.9889-.8215 0-2.07277-.2535-3.09421-.9889-.97809-.7043-1.8012-1.8854-1.8012-3.90658z" fill="#fff" fill-rule="evenodd"/></svg>